<?xml version="1.0" encoding="utf-8"?>
<!-- Generator: Adobe Illustrator 21.0.2, SVG Export Plug-In . SVG Version: 6.00 Build 0)  -->
<svg version="1.1" id="Layer_1" xmlns="http://www.w3.org/2000/svg" xmlns:xlink="http://www.w3.org/1999/xlink" x="0px" y="0px"
	 viewBox="0 0 64 38" style="enable-background:new 0 0 64 38;" xml:space="preserve">
<style type="text/css">
	.st0{fill:#3E3C61;}
	.st1{fill:#18172A;}
</style>
<g id="layer1">
	<g id="g10305">
		<path id="path2268" class="st0" d="M55.3,18.7c0,7.7-6.2,13.8-13.8,13.8c-7.7,0-13.8-6.2-13.8-13.8l0,0c0-7.7,6.2-13.8,13.8-13.8
			C49.2,4.9,55.3,11,55.3,18.7L55.3,18.7z"/>
		<path id="path1350" class="st0" d="M23,4.9c-7.5,0-13.8,6.2-13.8,13.8c0,7.7,6.2,13.8,13.8,13.8c3.6,0,6.9-1.3,9.3-3.6l0,0l0,0
			c0.5-0.5,0.9-0.9,1.4-1.4h-2.9c-0.4-0.5-0.8-0.9-1-1.4h4.9c0.3-0.5,0.5-0.9,0.8-1.4h-6.5c-0.3-0.5-0.4-0.9-0.5-1.4h7.7
			c0.5-1.4,0.6-2.9,0.6-4.4c0-1-0.1-1.9-0.3-3h-8.4c0.1-0.5,0.3-1,0.4-1.4h7.7c-0.1-0.5-0.4-1-0.6-1.4h-6.5c0.3-0.5,0.5-1,0.8-1.4
			h4.9c-0.3-0.5-0.6-1-1-1.4h-2.7c0.4-0.5,0.9-0.9,1.4-1.4C29.9,6.2,26.7,4.9,23,4.9L23,4.9z"/>
		<path id="path4157" class="st1" d="M28,21.6l0.1-1.3c-0.1,0-0.3,0-0.4,0c-0.5,0-0.5-0.3-0.5-0.5l0.4-2.6h0.8l0.1-1.4h-0.8l0.1-0.9
			h-1.4c0,0-0.9,4.8-0.9,5.5c0,0.9,0.5,1.3,1.2,1.3C27.5,21.7,27.9,21.6,28,21.6z"/>
		<path id="path4155" class="st1" d="M28.6,19.2c0,2.1,1.4,2.6,2.6,2.6c1,0,1.6-0.3,1.6-0.3l0.3-1.4c0,0-0.8,0.4-1.6,0.4
			c-1.6,0-1.3-1.2-1.3-1.2h3c0,0,0.1-0.9,0.1-1.3c0-0.9-0.5-2.2-2.1-2.2C29.7,15.8,28.6,17.4,28.6,19.2z M31.1,17.1
			c0.8,0,0.6,0.9,0.6,1h-1.7C30.2,18.1,30.4,17.1,31.1,17.1z"/>
		<path id="path4149" class="st1" d="M20,15.8c-1,0-1.8,0.3-1.8,0.3l-0.3,1.3c0,0,0.6-0.3,1.6-0.3c0.5,0,0.9,0,0.9,0.5
			c0,0.3,0,0.4,0,0.4s-0.4,0-0.6,0c-1.3,0-2.6,0.5-2.6,2.2c0,1.3,0.9,1.6,1.4,1.6c1,0,1.4-0.6,1.6-0.6v0.5h1.3l0.5-4
			C22.1,15.8,20.5,15.8,20,15.8z M20.4,19.1c0,0.3-0.1,1.4-1,1.4c-0.5,0-0.5-0.4-0.5-0.5c0-0.4,0.3-0.9,1.3-0.9
			C20.2,19.1,20.2,19.1,20.4,19.1z"/>
		<path id="path4145" class="st1" d="M23.4,21.7c0.4,0,2.2,0.1,2.2-1.8c0-1.8-1.7-1.4-1.7-2.2c0-0.4,0.3-0.5,0.8-0.5
			c0.3,0,1,0.1,1,0.1l0.1-1.3c0,0-0.5-0.1-1.3-0.1c-1,0-2.2,0.4-2.2,1.9c0,1.7,1.8,1.6,1.8,2.2c0,0.5-0.5,0.5-0.9,0.5
			c-0.6,0-1.3-0.3-1.3-0.3l-0.3,1.3C21.8,21.6,22.2,21.7,23.4,21.7z"/>
		<path id="path4133" class="st1" d="M12.1,21.7l0.9-5.3l0.1,5.3h1l1.9-5.3l-0.8,5.3h1.6l1.2-7h-2.3L14.3,19l-0.1-4.3h-2.2l-1.2,7
			C10.6,21.7,12.1,21.7,12.1,21.7z"/>
		<path id="path4131" class="st1" d="M34.7,21.7c0.4-2.5,0.5-4.4,1.6-4c0.1-0.9,0.4-1.3,0.5-1.7c0,0-0.1,0-0.3,0
			c-0.6,0-1.2,0.9-1.2,0.9l0.1-0.8H34l-0.9,5.7h1.6V21.7z"/>
	</g>
	<g id="g10289">
		<path id="path4151" class="st1" d="M40.4,22.2l0.3-1.6c0,0-0.8,0.4-1.2,0.4c-1,0-1.4-0.8-1.4-1.7c0-1.7,0.9-2.7,1.9-2.7
			c0.8,0,1.3,0.4,1.3,0.4l0.3-1.6c0,0-0.9-0.4-1.7-0.4c-1.7,0-3.4,1.4-3.4,4.3c0,1.8,0.9,3,2.6,3C39.6,22.5,40.4,22.2,40.4,22.2z"/>
		<path id="path4139" class="st1" d="M52.5,15.3l-0.3,1.9c0,0-0.5-0.8-1.4-0.8c-1.3,0-2.5,1.7-2.5,3.5c0,1.2,0.6,2.3,1.8,2.3
			c0.9,0,1.4-0.6,1.4-0.6v0.5H53l1.2-7L52.5,15.3z M51.8,19.1c0,0.8-0.4,1.8-1.2,1.8c-0.5,0-0.8-0.4-0.8-1.2c0-1.2,0.5-1.9,1.2-1.9
			C51.6,17.9,51.8,18.3,51.8,19.1z"/>
		<g id="use8523" transform="translate(847.0062,0)">
			<path id="path4149_1_" class="st1" d="M-803.2,16.5c-1,0-1.8,0.3-1.8,0.3l-0.3,1.3c0,0,0.6-0.3,1.6-0.3c0.5,0,0.9,0,0.9,0.5
				c0,0.3,0,0.4,0,0.4s-0.4,0-0.6,0c-1.3,0-2.6,0.5-2.6,2.2c0,1.3,0.9,1.6,1.4,1.6c1,0,1.4-0.6,1.6-0.6v0.5h1.3l0.5-4
				C-801.3,16.5-802.7,16.5-803.2,16.5z M-802.9,19.7c0,0.3-0.1,1.4-1,1.4c-0.5,0-0.5-0.4-0.5-0.5c0-0.4,0.3-0.9,1.3-0.9
				C-802.9,19.7-802.9,19.7-802.9,19.7z"/>
		</g>
		<g id="use8525" transform="translate(442.2857,0)">
			<path id="path4131_1_" class="st1" d="M-395.3,22.3c0.4-2.5,0.5-4.4,1.6-4c0.1-0.9,0.4-1.3,0.5-1.7c0,0-0.1,0-0.3,0
				c-0.6,0-1.2,0.9-1.2,0.9l0.1-0.8h-1.4l-0.9,5.7h1.6V22.3z"/>
		</g>
		<path id="text9407" class="st1" d="M54,21.4c0.1,0,0.1,0,0.3,0c0.1,0,0.1,0.1,0.1,0.1c0,0.1,0,0.1,0,0.3s0,0.1,0,0.3
			s-0.1,0.1-0.1,0.1c-0.1,0-0.1,0-0.3,0s-0.1,0-0.3,0s-0.1-0.1-0.1-0.1c0-0.1,0-0.1,0-0.3s0-0.1,0-0.3s0.1-0.1,0.1-0.1
			S53.9,21.4,54,21.4 M54,21.4h-0.1l-0.1,0.1v0.1v0.1l0.1,0.1H54h0.1l0.1-0.1v-0.1v-0.1l-0.1-0.1C54,21.6,54,21.4,54,21.4
			 M53.8,22.1v-0.5h0.1H54l0,0c0,0,0,0,0,0.1v0.1c0,0,0,0-0.1,0l0,0c0,0,0,0,0.1,0.1v0.1h-0.1V22c0,0,0-0.1-0.1-0.1l0,0l0,0V22.1
			L53.8,22.1 M53.9,21.8L53.9,21.8c0.1,0,0.1,0,0.1,0l0,0l0,0l0,0C54,21.8,54,21.8,53.9,21.8h-0.1H53.9"/>
	</g>
</g>
</svg>
