<?xml version="1.0" encoding="utf-8"?>
<!-- Generator: Adobe Illustrator 21.0.2, SVG Export Plug-In . SVG Version: 6.00 Build 0)  -->
<svg version="1.1" id="Layer_1" xmlns="http://www.w3.org/2000/svg" xmlns:xlink="http://www.w3.org/1999/xlink" x="0px" y="0px"
	 viewBox="0 0 64 38" style="enable-background:new 0 0 64 38;" xml:space="preserve">
<style type="text/css">
	.st0{fill:#3E3C61;}
</style>
<g>
	<path class="st0" d="M26.3,26.2c-0.2-1.1-0.7-1.9-1.4-2.5c-0.2-0.3-0.5-0.4-0.9-0.6c-0.2-0.1-0.3-0.2-0.5-0.2
		c-0.4-0.1-0.8-0.3-1.4-0.2c0.3-0.2,0.7-0.2,1.2-0.1c0.4,0,0.7,0.1,1,0.2s0.5,0.3,0.8,0.4c0.7-2,0.4-4.6-0.3-6.3
		c-0.7-1.8-1.7-3.3-3.1-4.5c-1.3-1.2-2.9-2.1-5-2.6c-1-0.2-2.3-0.2-3.3,0c-1,0.3-1.8,0.7-2.5,1.2c-0.7,0.6-1.3,1.2-1.8,2
		c-0.2,0.2-0.2,0.4-0.4,0.6c-0.1,0.2-0.2,0.4-0.3,0.7c-0.2,0.5-0.3,0.9-0.4,1.5c-0.2,1-0.3,2.3-0.1,3.4c0.1,1.1,0.5,2,0.8,2.9
		c0.2,0.4,0.4,0.9,0.7,1.2c0.2,0.4,0.5,0.7,0.8,1.1c0.6,0.7,1.2,1.3,2,1.8c1.5,1,3.3,1.8,5.7,1.9c0-0.1-0.1-0.3-0.1-0.4
		s-0.1-0.3-0.1-0.4c0-0.3,0-0.7,0-1c0.1,0,0.1,0.1,0.1,0.2c0.1,0.1,0.1,0.1,0.1,0.2c0.1,0.2,0.2,0.3,0.3,0.4
		c0.2,0.2,0.4,0.5,0.7,0.7c0.2,0.2,0.5,0.4,0.8,0.6s0.5,0.3,0.9,0.4c0.6,0.3,1.4,0.4,2.2,0.5c0.8,0.1,1.6,0.2,2.3,0.4
		c0.7,0.2,1.4,0.4,1.9,0.8c0.3,0.2,0.6,0.3,0.8,0.5c0.1,0.1,0.3,0.2,0.4,0.3c0.2,0.1,0.2,0.2,0.4,0.3c0.5,0.4,0.9,0.9,1.3,1.4
		c0.2,0.3,0.4,0.5,0.5,0.9c0.1,0.1,0.1,0.3,0.2,0.4c0,0.2,0.2,0.4,0,0.5c-0.2,0-0.2-0.2-0.3-0.3c-0.1-0.1-0.2-0.2-0.2-0.4
		c-0.3-0.4-0.7-0.8-1-1.1c-0.4-0.3-0.7-0.7-1.2-0.9c-0.8-0.6-1.8-1-2.9-1.3s-2.3-0.4-3.8-0.4c-0.6,0.1-1.2,0.2-1.8,0.4
		c-0.6,0.1-1.2,0.2-1.8,0.3c-2.4,0.2-5.1-0.4-7-1.3c-1-0.4-1.9-1-2.6-1.6c-0.4-0.3-0.8-0.7-1.1-1C6.6,26.8,6.2,26.4,6,26
		c-0.3-0.4-0.5-0.9-0.8-1.4c-0.2-0.5-0.4-1-0.5-1.6c-0.2-0.5-0.3-1.1-0.4-1.8c0-0.2-0.1-0.5-0.1-0.8c0,0,0,0,0-0.1
		c0-0.3-0.1-0.6,0-0.9c0-0.6,0.1-1.3,0.2-1.9s0.3-1.1,0.4-1.7c0.2-0.5,0.4-1,0.6-1.5c0.1-0.2,0.3-0.5,0.4-0.7s0.3-0.4,0.4-0.7
		c0.1-0.1,0.1-0.2,0.2-0.3c0-0.1,0.2-0.2,0.2-0.3c0.1-0.1,0.2-0.2,0.2-0.3C6.9,11.9,7,11.8,7,11.7c0.4-0.3,0.7-0.7,1-1.1
		c0.4-0.3,0.8-0.6,1.2-1c0.2-0.1,0.4-0.3,0.7-0.4C10.1,9,10.3,9,10.5,8.8C11,8.6,11.4,8.3,12,8.1c0.5-0.2,1-0.4,1.5-0.6
		c1.1-0.3,2.3-0.5,3.7-0.4c0.1,0,0.1-0.1,0.1,0C20,7.2,22,8,23.6,9.1c1.7,1.1,2.9,2.6,3.9,4.4c0.9,1.8,1.4,4.3,1,6.9
		c-0.2,1.2-0.6,2.2-1,3.2c-0.2,0.5-0.5,0.9-0.7,1.3c-0.1,0.2-0.3,0.4-0.4,0.6c-0.1,0.1-0.1,0.2-0.2,0.3C26.4,26,26.4,26,26.3,26.2
		C26.3,26.1,26.3,26.1,26.3,26.2L26.3,26.2z"/>
	<path class="st0" d="M25.5,26.9c-0.3-0.1-0.4-0.6-0.6-0.9c0-0.1-0.1-0.3,0-0.4c0,0,0,0,0.1,0c0.1-0.1,0.2,0,0.3,0.1
		c0.2,0.2,0.3,0.5,0.4,0.7C25.7,26.6,25.7,26.9,25.5,26.9z"/>
	<path class="st0" d="M22.9,26.4C22.9,26.4,23,26.4,22.9,26.4c0.6,0.1,0.8,0.4,0.8,1c0,0.3-0.2,0.5-0.5,0.6c-0.7,0-1.1-0.6-0.9-1.3
		C22.5,26.5,22.6,26.4,22.9,26.4z"/>
	<path class="st0" d="M38.9,22.3c0.1,0.4,0.3,0.6,0.5,0.9c0.2,0.2,0.4,0.4,0.7,0.6c0.3,0.2,0.6,0.3,0.9,0.4c0.2,0.1,0.3,0.1,0.5,0.1
		c0.1,0.1,0.3,0.1,0.3,0.3c0,0.2-0.2,0.3-0.4,0.4c-0.2,0-0.5,0-0.7-0.1c-0.5-0.1-0.8-0.2-1.2-0.3c-0.7-0.3-1.3-0.7-1.8-1.2
		c-0.1-0.2-0.2-0.3-0.4-0.5c-0.1-0.2-0.2-0.4-0.3-0.5c-0.9-0.1-1.5-0.5-2-1c-0.5-0.6-0.9-1.2-1-2.1c-0.2-0.9-0.1-1.9,0.1-2.7
		c0.5-1.6,1.5-2.7,3.5-2.8c0.5,0,1,0.1,1.4,0.2c0.4,0.2,0.8,0.4,1.2,0.7c0,0,0,0,0.1,0.1s0.2,0.2,0.3,0.4v0.1l0.1,0.1v0.1l0.1,0.1
		c0,0,0.1,0,0.1,0.1C41,15.8,41,15.9,41,16c0,0.1,0.1,0.2,0.1,0.3c0.1,0.3,0.2,0.7,0.2,1.2c0.1,1.2-0.1,2.3-0.6,3.1
		c-0.2,0.4-0.5,0.8-0.8,1C39.8,21.9,39.3,22.1,38.9,22.3z M37.5,14.8c-0.3,0-0.4,0.1-0.6,0.2c-0.1,0.1-0.3,0.2-0.4,0.4
		c-0.2,0.1-0.2,0.3-0.4,0.4c-0.1,0.3-0.2,0.6-0.3,1c-0.1,0.4-0.1,0.8-0.1,1.2c0,1,0.2,2,0.6,2.6c0.2,0.3,0.5,0.5,0.9,0.7
		c0.2,0,0.4,0.1,0.6,0.1c0.1,0,0.3,0,0.4-0.1c0.2,0,0.2-0.1,0.4-0.1c0.1-0.1,0.2-0.2,0.3-0.2c0.1-0.1,0.2-0.2,0.3-0.4
		c0.1-0.1,0.1-0.2,0.2-0.3c0.5-1,0.6-2.8,0.2-4c-0.1-0.4-0.3-0.8-0.5-1s-0.5-0.4-0.8-0.6C38.1,14.9,37.9,14.8,37.5,14.8L37.5,14.8
		L37.5,14.8z"/>
	<path class="st0" d="M43.8,14c0.5,0,1,0,1.4,0c0.1,0.1,0.1,0.3,0.1,0.5c0,2.2,0,4.5,0,6.8c0,0.2,0,0.4,0,0.5s0,0.3-0.1,0.4
		c-0.2,0.1-0.5,0-0.8,0s-0.6,0-0.7-0.1C43.6,19.6,43.6,16.7,43.8,14C43.7,14.1,43.7,14,43.8,14z"/>
	<path class="st0" d="M47.3,14c0.5,0,0.9,0,1.4,0c0.1,0.2,0.2,0.4,0.2,0.7c0.4,1.6,0.8,3.2,1.2,4.8c0.1,0,0.1-0.1,0.1-0.1
		s0-0.1,0.1-0.2c0-0.1,0.1-0.2,0.1-0.4c0.1-0.2,0.1-0.5,0.2-0.7c0.1-0.5,0.3-0.9,0.4-1.4s0.3-0.9,0.4-1.4c0.2-0.4,0.2-1,0.5-1.3
		c0.2,0,0.4,0,0.6,0c0.2,0.4,0.3,0.9,0.5,1.4c0.1,0.5,0.3,0.9,0.4,1.4c0.3,0.9,0.6,1.8,0.9,2.8c0.1-0.2,0.1-0.5,0.2-0.7
		s0.1-0.5,0.2-0.7c0.2-0.9,0.4-1.9,0.7-2.8c0.1-0.5,0.2-1,0.4-1.4c0.3,0,0.9,0,1.2,0c0,0.3-0.1,0.7-0.2,1c-0.1,0.4-0.2,0.7-0.3,1
		c-0.2,0.7-0.4,1.4-0.6,2.1s-0.4,1.4-0.6,2.1c-0.1,0.3-0.2,0.7-0.3,1c-0.1,0.3-0.2,0.7-0.3,1c-0.3,0-0.6,0-0.8,0
		c-0.2-0.4-0.3-0.9-0.5-1.3c-0.4-1.3-0.9-2.6-1.3-3.9c-0.1,0.1-0.1,0.4-0.2,0.6s-0.1,0.4-0.2,0.7c-0.1,0.5-0.3,0.8-0.4,1.3
		c-0.2,0.4-0.3,0.9-0.4,1.3c-0.2,0.4-0.2,0.9-0.4,1.2c-0.2,0.1-0.6,0-0.8,0c-0.2-0.2-0.2-0.7-0.4-1c-0.1-0.3-0.2-0.7-0.3-1
		c-0.2-0.7-0.4-1.4-0.6-2.1s-0.4-1.4-0.6-2.1c-0.1-0.3-0.2-0.7-0.3-1C47.4,14.8,47.2,14.5,47.3,14L47.3,14z"/>
	<path class="st0" d="M59.1,14c0.5,0,1,0,1.4,0c0.1,0.3,0.1,0.6,0.1,1c0,2,0,4.2,0,6.2c0,0.3,0,0.7-0.1,1c-0.3,0-0.8,0-1.2,0
		c-0.1,0-0.3,0-0.3-0.1c-0.1-0.3-0.1-0.6-0.1-1c0-2,0-4.1,0-6.2C58.9,14.7,58.9,14.3,59.1,14C59,14,59,14,59.1,14z"/>
	<path class="st0" d="M50.7,25.7c0.2,0.1,0.4,0.2,0.5,0.3c0.1,0.2,0.2,0.5,0.1,0.7c-0.3,0.5-1.2,0.6-1.9,0.4c0-0.9,0-1.8,0-2.7
		c0.2-0.1,0.5-0.1,0.8-0.1c0.2,0,0.4,0.1,0.6,0.1c0.2,0.1,0.4,0.4,0.3,0.8C51,25.5,50.9,25.6,50.7,25.7z M50.7,25.3
		c0.1-0.6-0.4-0.7-0.9-0.6c0,0.3,0,0.6,0,1C50.3,25.7,50.6,25.6,50.7,25.3z M50.9,26.7c0.2-0.6-0.4-0.9-1-0.8c-0.1,0.3,0,0.7,0,1.1
		C50.3,27,50.7,27,50.9,26.7z"/>
	<path class="st0" d="M44,24.4c0.1,0.3,0,0.8,0,1.1c0,0.1,0.1-0.1,0.1-0.1c0.1,0,0.1-0.1,0.1-0.1c0.1-0.1,0.2-0.2,0.2-0.3
		c0.2-0.2,0.3-0.4,0.5-0.6c0.1,0,0.3,0,0.3,0c-0.1,0.3-0.3,0.4-0.4,0.6s-0.3,0.4-0.4,0.6c0.2,0.3,0.4,0.5,0.5,0.8
		c0.2,0.2,0.4,0.5,0.5,0.8c-0.1,0.1-0.3,0-0.5,0c-0.2-0.2-0.3-0.5-0.5-0.7c-0.1-0.2-0.3-0.4-0.5-0.7c-0.1,0.4,0,0.9,0,1.4
		c-0.1,0.1-0.3,0-0.4,0c-0.1-0.9,0-2.1,0-2.8C43.8,24.4,43.9,24.4,44,24.4z"/>
	<path class="st0" d="M48.1,25.2L48.1,25.2c-0.5,0.7-1,1.4-1.5,2c-0.1,0-0.2,0-0.4,0c0-0.9,0-2,0-2.8c0.1,0,0.2,0,0.3,0
		c0,0.7,0,1.4,0,2.1c0,0.1,0.1-0.1,0.1-0.1l0.1-0.1c0.1-0.1,0.1-0.2,0.2-0.3c0.1-0.2,0.3-0.4,0.4-0.6c0.2-0.2,0.3-0.4,0.4-0.6
		c0-0.1,0.1-0.2,0.2-0.3c0-0.2,0.2-0.2,0.4-0.1c0,0.9,0,1.9,0,2.8c-0.1,0-0.2,0-0.3,0C48,26.6,48.1,25.9,48.1,25.2z"/>
	<path class="st0" d="M52.5,24.5c0,0.7,0,1.3,0,2c0,0.1,0.1-0.1,0.1-0.1c0.1,0,0.1-0.1,0.1-0.1c0.1-0.1,0.1-0.2,0.2-0.2
		c0.1-0.2,0.2-0.3,0.4-0.5c0.3-0.3,0.5-0.7,0.7-1c0.1,0,0.2,0,0.4,0c0,0.9,0,2,0,2.8c-0.1,0-0.2,0-0.3,0c-0.1-0.7,0-1.4,0-2.1
		c0-0.1,0,0-0.1,0c0,0,0,0.1-0.1,0.1c0,0.1-0.1,0.1-0.1,0.1c-0.1,0.1-0.1,0.2-0.2,0.3c-0.1,0.2-0.3,0.4-0.4,0.6s-0.3,0.4-0.4,0.6
		c-0.2,0.1-0.2,0.5-0.6,0.4c0-0.9,0-2,0-2.8C52.3,24.4,52.5,24.4,52.5,24.5z"/>
</g>
</svg>
