<?xml version="1.0" encoding="utf-8"?>
<!-- Generator: Adobe Illustrator 21.0.2, SVG Export Plug-In . SVG Version: 6.00 Build 0)  -->
<svg version="1.1" id="Layer_1" xmlns="http://www.w3.org/2000/svg" xmlns:xlink="http://www.w3.org/1999/xlink" x="0px" y="0px"
	 viewBox="0 0 64 38" style="enable-background:new 0 0 64 38;" xml:space="preserve">
<style type="text/css">
	.st0{fill:#3E3C61;}
	.st1{clip-path:url(#SVGID_2_);fill:#3E3C61;}
	.st2{clip-path:url(#SVGID_4_);fill:#3E3C61;}
</style>
<path class="st0" d="M8.8,5.9H7.4C6,5.9,5,6.9,5,8.9c0,1.2,0.5,2,1.5,2.4l-1.8,3.3c0,0.1,0,0.1,0.1,0.1h0.8c0.1,0,0.1,0,0.1-0.1
	l1.6-3.1h0.5v3.1c0,0,0,0.1,0.1,0.1h0.7c0.1,0,0.1,0,0.1-0.1L8.8,5.9C8.9,6.1,8.9,5.9,8.8,5.9 M8.1,10.8H7.6c-0.8,0-1.5-0.5-1.5-1.9
	c0-1.5,0.7-2,1.4-2H8L8.1,10.8L8.1,10.8z"/>
<path class="st0" d="M13.3,8.9h-0.7c0,0-0.1,0-0.1,0.1v2.2h-1.4V9c0,0,0-0.1-0.1-0.1h-0.7c0,0-0.1,0-0.1,0.1v5.7c0,0,0,0.1,0.1,0.1
	H11c0,0,0.1,0,0.1-0.1V12h1.4v2.7c0,0,0,0.1,0.1,0.1h0.7c0,0,0.1,0,0.1-0.1L13.3,8.9L13.3,8.9"/>
<path class="st0" d="M29.7,14.4L29.6,14l0,0c0,0-0.4,0.1-0.8,0.1c-1,0-1.4-0.8-1.4-2.2c0-1.2,0.4-2.3,1-2.3c0.1,0,0.4,0,0.7,0.3
	c0,0,0,0,0.1,0c0,0,0.1,0,0.1-0.1l0.3-0.5V9.2c0,0,0-0.1-0.1-0.1c-0.5-0.3-0.8-0.3-1.1-0.3c-1.1,0-1.9,1.4-1.9,3.4
	c0,1.8,0.8,2.7,2,2.7C28.9,14.9,29.5,14.6,29.7,14.4C29.7,14.5,29.7,14.5,29.7,14.4"/>
<path class="st0" d="M24.7,11.5l1.4-2.6V8.8h-0.7c-0.1,0-0.3,0.1-0.3,0.3L24,11.3c0,0.1-0.1,0.3-0.1,0.3V9c0,0,0-0.1-0.1-0.1H23
	c0,0-0.1,0-0.1,0.1v5.7c0,0,0,0.1,0.1,0.1h0.8c0,0,0.1,0,0.1-0.1v-3c0,0,0,0,0.1,0.1l1.4,2.7c0.1,0.1,0.1,0.1,0.3,0.1h0.7
	c0,0,0,0,0-0.1L24.7,11.5"/>
<path class="st0" d="M18,14.1L18,14.1c-0.2,0-0.4-0.1-0.4-0.3V8.9c0,0,0-0.1-0.1-0.1h-2.3c0,0-0.1,0-0.1,0.1v0.4
	c0,1.4-0.1,3.3-0.8,4.6H14c-0.1,0-0.1,0-0.1,0.1c0,0,0,1.4,0,1.8c0,0,0,0.1,0.1,0.1h0.5c0.1,0,0.1-0.1,0.1-0.1v-1H17V16
	c0,0,0,0.1,0.1,0.1h0.5c0.1,0,0.1,0,0.1-0.1L18,14.1L18,14.1 M16.7,14.1h-1.6c0.5-1,0.8-2.2,1-3.5c0-0.3,0-0.7,0-0.8h0.7v4.3H16.7z"
	/>
<path class="st0" d="M20.4,8.8c-1.2,0-1.8,1.6-1.8,3.3c0,1.8,0.8,2.9,1.9,2.9c0.5,0,1.1-0.3,1.4-0.4c0,0,0,0,0-0.1l-0.1-0.4
	c0,0,0-0.1-0.1-0.1c0,0-0.4,0.1-0.8,0.1c-1,0-1.4-0.8-1.4-1.8c0-0.1,0-0.3,0-0.3s0.4,0,0.7,0H22v-0.5C22,9.7,21.3,8.8,20.4,8.8
	 M20.2,11.4c-0.3,0-0.7,0-0.7,0s0-0.1,0-0.4c0.1-1,0.4-1.5,0.8-1.5c0.4,0,0.5,0.5,0.7,1.4c0,0.1,0,0.4,0,0.4L20.2,11.4L20.2,11.4z"
	/>
<path class="st0" d="M26.3,29.4h1.9c1.8,0,3.3-1,3.3-3.4c0-2.3-1.5-3.1-3.4-3.1c-0.3,0-0.5,0-0.5,0v-3.7c0,0,0-0.1-0.1-0.1h-1.4
	c-0.1,0-0.1,0-0.1,0.1v10.1C26.1,29.3,26.2,29.4,26.3,29.4 M27.7,24h0.4c1.2,0,1.9,0.8,1.9,1.9c0,1.4-0.7,2.2-1.8,2.2h-0.5L27.7,24
	L27.7,24z"/>
<g>
	<g>
		<g>
			<g>
				<defs>
					<rect id="SVGID_1_" x="3.1" y="5.9" width="59.9" height="25.4"/>
				</defs>
				<clipPath id="SVGID_2_">
					<use xlink:href="#SVGID_1_"  style="overflow:visible;"/>
				</clipPath>
				<path class="st1" d="M24,19.1h-1.2c-0.1,0-0.1,0.1-0.1,0.1v3.9h-2.3v-3.9c0-0.1,0-0.1-0.1-0.1H19c-0.1,0-0.1,0-0.1,0.1v10.1
					c0,0.1,0,0.1,0.1,0.1h1.4c0.1,0,0.1,0,0.1-0.1v-4.8h2.3v4.8c0,0.1,0,0.1,0.1,0.1h1.2c0.1,0,0.1-0.1,0.1-0.1V19.2
					C24.2,19.1,24.2,19.1,24,19.1"/>
			</g>
		</g>
	</g>
	<g>
		<g>
			<g>
				<defs>
					<rect id="SVGID_3_" x="3.1" y="5.9" width="59.9" height="25.4"/>
				</defs>
				<clipPath id="SVGID_4_">
					<use xlink:href="#SVGID_3_"  style="overflow:visible;"/>
				</clipPath>
				<path class="st2" d="M10.2,28.1H9.9c-0.3,0-0.4-0.1-0.4-0.4v-8.4c0-0.1,0-0.1-0.1-0.1H5.3c-0.1,0-0.1,0-0.1,0.1V20
					c0,2.4-0.1,5.7-1.5,8.1H3.3c-0.1,0-0.1,0-0.1,0.1c0,0,0,2.4,0,3c0,0.1,0.1,0.1,0.1,0.1h1c0.3,0,0.3-0.1,0.3-0.3v-1.8h4.3v1.9
					c0,0.1,0,0.1,0.1,0.1h1.1c0.1,0,0.3-0.1,0.3-0.3V28C10.4,28.2,10.3,28.1,10.2,28.1 M8,28.1H5c1.1-1.8,1.5-3.8,1.6-6.2
					c0-0.5,0-1.1,0-1.5H8V28.1L8,28.1z"/>
			</g>
		</g>
	</g>
</g>
<path class="st0" d="M14.4,18.8c-2.2,0-3.3,2.9-3.3,5.8c0,3.1,1.4,5,3.4,5c1,0,1.9-0.4,2.3-0.7c0.1,0,0.1-0.1,0.1-0.1l-0.1-0.7
	c0-0.1,0-0.1-0.1-0.1s-0.7,0.3-1.5,0.3c-1.6,0-2.3-1.4-2.3-3.3c0-0.3,0-0.5,0-0.5s0.8,0.1,1.2,0.1h3v-0.8
	C17.2,20.5,16,18.8,14.4,18.8 M14.2,23.3c-0.4,0-1.2,0.1-1.2,0.1s0-0.3,0-0.7c0.1-1.8,0.7-2.6,1.4-2.6s1.1,1,1.2,2.4
	c0,0.3,0,0.7,0,0.7L14.2,23.3L14.2,23.3z"/>
<path class="st0" d="M37.3,19.1H33c-0.1,0-0.1,0-0.1,0.1v10.1c0,0.1,0,0.1,0.1,0.1h1.4c0.1,0,0.1,0,0.1-0.1v-8.8h2.9
	c0,0,0.1,0,0.1-0.1s0-1.1,0-1.1C37.5,19.1,37.3,19.1,37.3,19.1"/>
<path class="st0" d="M43.7,19.1h-1.2c-0.1,0-0.1,0-0.1,0.1L40,25.7l-0.1,0.5v-7.1c0-0.1,0-0.1-0.1-0.1h-1.2c-0.1,0-0.1,0.1-0.1,0.1
	V29c0,0.3,0,0.3,0.1,0.3h1.2c0,0,0.1,0,0.1-0.1l2.4-6.7l0.1-0.4V29c0,0.1,0,0.1,0.1,0.1h1.2c0.1,0,0.1-0.1,0.1-0.3v-9.9
	C43.8,19.1,43.7,19.1,43.7,19.1"/>
<path class="st0" d="M61.8,19H61v5.2c0,1-0.4,1.5-1.6,1.8l-7.5,2.2c0,0-0.7,0.1-0.7-0.4s0.5-0.5,0.7-0.7l0,0l6.8-2.7
	c0.5-0.3,1.1-1.1,1.1-1.6v-8.1c0-1.2-1.2-0.8-1.5-0.7c-0.3,0.1-7.9,4.5-7.9,4.5c-0.5,0.3-1.1,1.1-1.1,1.6v8.1c0,0.5,0.8,1.4,1.4,1.4
	l0,0h11.1c0.7,0,1.2-0.4,1.2-1.1v-8.3C63,19.5,62.5,19,61.8,19 M56.3,18.4c0.5-0.4,1.1-0.3,1.1,0.3c0.1,0.5-0.3,1.1-0.7,1.5
	c-0.5,0.4-1.1,0.3-1.1-0.3S55.8,18.8,56.3,18.4z"/>
</svg>
